<svg width="169" height="53" viewBox="0 0 169 53" fill="none" xmlns="http://www.w3.org/2000/svg">
<path d="M0 39C0 38.0707 0 37.606 0.0768588 37.2196C0.392485 35.6329 1.63288 34.3925 3.21964 34.0769C3.60603 34 4.07069 34 5 34C5.92931 34 6.39397 34 6.78036 34.0769C8.36712 34.3925 9.60751 35.6329 9.92314 37.2196C10 37.606 10 38.0707 10 39V53H0V39Z" fill="#38BDF8"/>
<path d="M27 28C27 27.0707 27 26.606 27.0769 26.2196C27.3925 24.6329 28.6329 23.3925 30.2196 23.0769C30.606 23 31.0707 23 32 23C32.9293 23 33.394 23 33.7804 23.0769C35.3671 23.3925 36.6075 24.6329 36.9231 26.2196C37 26.606 37 27.0707 37 28V53H27V28Z" fill="#38BDF8"/>
<path d="M54 34C54 33.0707 54 32.606 54.0769 32.2196C54.3925 30.6329 55.6329 29.3925 57.2196 29.0769C57.606 29 58.0707 29 59 29C59.9293 29 60.394 29 60.7804 29.0769C62.3671 29.3925 63.6075 30.6329 63.9231 32.2196C64 32.606 64 33.0707 64 34V53H54V34Z" fill="#38BDF8"/>
<path d="M81 16C81 15.0707 81 14.606 81.0769 14.2196C81.3925 12.6329 82.6329 11.3925 84.2196 11.0769C84.606 11 85.0707 11 86 11C86.9293 11 87.394 11 87.7804 11.0769C89.3671 11.3925 90.6075 12.6329 90.9231 14.2196C91 14.606 91 15.0707 91 16V53H81V16Z" fill="#38BDF8"/>
<path d="M107 5C107 4.07069 107 3.60603 107.077 3.21964C107.392 1.63288 108.633 0.392485 110.22 0.0768588C110.606 0 111.071 0 112 0C112.929 0 113.394 0 113.78 0.0768588C115.367 0.392485 116.608 1.63288 116.923 3.21964C117 3.60603 117 4.07069 117 5V53H107V5Z" fill="#38BDF8"/>
<path d="M133 11C133 10.0707 133 9.60603 133.077 9.21964C133.392 7.63288 134.633 6.39249 136.22 6.07686C136.606 6 137.071 6 138 6C138.929 6 139.394 6 139.78 6.07686C141.367 6.39249 142.608 7.63288 142.923 9.21964C143 9.60603 143 10.0707 143 11V53H133V11Z" fill="#38BDF8"/>
<path d="M159 26C159 25.0707 159 24.606 159.077 24.2196C159.392 22.6329 160.633 21.3925 162.22 21.0769C162.606 21 163.071 21 164 21C164.929 21 165.394 21 165.78 21.0769C167.367 21.3925 168.608 22.6329 168.923 24.2196C169 24.606 169 25.0707 169 26V53H159V26Z" fill="#38BDF8"/>
</svg>
