<svg width="34" height="34" viewBox="0 0 34 34" fill="none" xmlns="http://www.w3.org/2000/svg">
<path fill-rule="evenodd" clip-rule="evenodd" d="M0.647024 5.24719C0 6.80925 0 8.7895 0 12.75V21.25C0 25.2105 0 27.1908 0.647024 28.7528C1.50972 30.8355 3.16445 32.4903 5.24719 33.353C6.80925 34 8.7895 34 12.75 34H21.25C25.2105 34 27.1908 34 28.7528 33.353C30.8355 32.4903 32.4903 30.8355 33.353 28.7528C34 27.1908 34 25.2105 34 21.25V12.75C34 8.7895 34 6.80925 33.353 5.24719C32.4903 3.16445 30.8355 1.50972 28.7528 0.647024C27.1908 0 25.2105 0 21.25 0H12.75C8.7895 0 6.80925 0 5.24719 0.647024C3.16445 1.50972 1.50972 3.16445 0.647024 5.24719ZM19.6078 9.30869C19.6443 9.17643 19.4903 9.07471 19.383 9.16021L9.89452 16.7202C9.80397 16.7924 9.83351 16.9368 9.94512 16.9676L15.0029 18.3632C15.0783 18.384 15.1226 18.4621 15.1018 18.5375L13.4968 24.3539C13.4603 24.4862 13.6144 24.5879 13.7217 24.5024L23.2101 16.9423C23.3007 16.8702 23.2711 16.7258 23.1595 16.695L18.1017 15.2994C18.0263 15.2785 17.982 15.2005 18.0029 15.1251L19.6078 9.30869Z" fill="white"/>
</svg>
